<?xml version="1.0" standalone="no"?>
<!DOCTYPE svg PUBLIC "-//W3C//DTD SVG 20010904//EN"
 "http://www.w3.org/TR/2001/REC-SVG-20010904/DTD/svg10.dtd">
<svg version="1.0" xmlns="http://www.w3.org/2000/svg"
 width="531.000000pt" height="531.000000pt" viewBox="0 0 531.000000 531.000000"
 preserveAspectRatio="xMidYMid meet">
<metadata>
Created by potrace 1.11, written by Peter Selinger 2001-2013
</metadata>
<g transform="translate(0.000000,531.000000) scale(0.100000,-0.100000)"
fill="#000000" stroke="none">
<path d="M0 4682 l0 -600 378 -376 c207 -206 532 -528 722 -715 l345 -341
-120 -116 c-66 -64 -265 -259 -443 -433 -178 -174 -376 -367 -440 -429 -64
-63 -190 -186 -279 -274 l-163 -160 0 -606 0 -607 108 107 c59 59 182 180 274
270 91 90 349 343 573 563 224 220 474 465 555 545 136 133 882 866 1076 1057
l83 82 -98 98 c-121 120 -1089 1075 -1361 1343 -175 172 -1183 1166 -1202
1186 -5 4 -8 -263 -8 -594z"/>
<path d="M1330 4683 l0 -602 388 -385 c213 -211 538 -533 722 -715 l335 -331
-723 -720 -722 -721 0 -592 0 -592 128 127 c70 69 191 188 269 264 78 77 327
321 553 544 227 223 480 472 564 553 83 82 348 343 589 580 242 238 468 460
503 494 l63 63 -275 272 c-152 150 -347 343 -434 428 -87 85 -409 403 -716
706 -308 304 -644 636 -749 739 -104 102 -259 254 -342 338 l-153 152 0 -602z"/>
<path d="M2640 4693 l0 -591 383 -380 c210 -210 539 -536 732 -726 l349 -346
-131 -127 c-72 -71 -278 -272 -458 -448 -180 -176 -371 -362 -424 -414 -53
-51 -176 -172 -273 -268 l-178 -175 0 -596 0 -597 113 112 c61 61 171 169 243
240 72 70 324 317 558 548 235 231 496 487 579 569 251 245 1045 1026 1113
1094 l63 63 -82 81 c-45 44 -329 324 -630 622 -302 297 -638 629 -747 736
-165 162 -1178 1161 -1202 1186 -5 4 -8 -258 -8 -583z"/>
</g>
</svg>
